<mxfile host="app.diagrams.net" agent="Mozilla/5.0 (Windows NT 10.0; Win64; x64) AppleWebKit/537.36 (KHTML, like Gecko) Chrome/136.0.0.0 Safari/537.36" version="27.0.6">
  <diagram name="Page-1" id="NFgwRy43h2DMSyGXX6we">
    <mxGraphModel dx="4600" dy="3623" grid="1" gridSize="10" guides="1" tooltips="1" connect="1" arrows="1" fold="1" page="1" pageScale="1" pageWidth="850" pageHeight="1100" math="0" shadow="0">
      <root>
        <mxCell id="0" />
        <mxCell id="1" parent="0" />
        <mxCell id="TTgLGut_yQstgRSbEz0M-1" value="" style="ellipse;whiteSpace=wrap;html=1;aspect=fixed;" parent="1" vertex="1">
          <mxGeometry x="260" y="120" width="60" height="60" as="geometry" />
        </mxCell>
        <mxCell id="TTgLGut_yQstgRSbEz0M-2" value="" style="ellipse;whiteSpace=wrap;html=1;aspect=fixed;" parent="1" vertex="1">
          <mxGeometry x="260" y="200" width="60" height="60" as="geometry" />
        </mxCell>
        <mxCell id="TTgLGut_yQstgRSbEz0M-3" value="" style="ellipse;whiteSpace=wrap;html=1;aspect=fixed;" parent="1" vertex="1">
          <mxGeometry x="260" y="270" width="60" height="60" as="geometry" />
        </mxCell>
        <mxCell id="TTgLGut_yQstgRSbEz0M-6" value="" style="ellipse;whiteSpace=wrap;html=1;aspect=fixed;" parent="1" vertex="1">
          <mxGeometry x="260" y="340" width="60" height="60" as="geometry" />
        </mxCell>
        <mxCell id="TTgLGut_yQstgRSbEz0M-7" value="" style="endArrow=none;dashed=1;html=1;rounded=0;" parent="1" edge="1">
          <mxGeometry width="50" height="50" relative="1" as="geometry">
            <mxPoint x="290" y="490" as="sourcePoint" />
            <mxPoint x="290" y="420" as="targetPoint" />
          </mxGeometry>
        </mxCell>
        <mxCell id="TTgLGut_yQstgRSbEz0M-9" value="" style="ellipse;whiteSpace=wrap;html=1;aspect=fixed;" parent="1" vertex="1">
          <mxGeometry x="260" y="500" width="60" height="60" as="geometry" />
        </mxCell>
        <mxCell id="TTgLGut_yQstgRSbEz0M-10" value="" style="ellipse;whiteSpace=wrap;html=1;aspect=fixed;" parent="1" vertex="1">
          <mxGeometry x="417" y="216" width="60" height="60" as="geometry" />
        </mxCell>
        <mxCell id="TTgLGut_yQstgRSbEz0M-11" value="" style="ellipse;whiteSpace=wrap;html=1;aspect=fixed;" parent="1" vertex="1">
          <mxGeometry x="417" y="296" width="60" height="60" as="geometry" />
        </mxCell>
        <mxCell id="TTgLGut_yQstgRSbEz0M-12" value="" style="ellipse;whiteSpace=wrap;html=1;aspect=fixed;" parent="1" vertex="1">
          <mxGeometry x="417" y="366" width="60" height="60" as="geometry" />
        </mxCell>
        <mxCell id="TTgLGut_yQstgRSbEz0M-13" value="" style="ellipse;whiteSpace=wrap;html=1;aspect=fixed;" parent="1" vertex="1">
          <mxGeometry x="417" y="436" width="60" height="60" as="geometry" />
        </mxCell>
        <mxCell id="TTgLGut_yQstgRSbEz0M-14" value="" style="endArrow=none;dashed=1;html=1;rounded=0;" parent="1" edge="1">
          <mxGeometry width="50" height="50" relative="1" as="geometry">
            <mxPoint x="447" y="586" as="sourcePoint" />
            <mxPoint x="447" y="516" as="targetPoint" />
          </mxGeometry>
        </mxCell>
        <mxCell id="TTgLGut_yQstgRSbEz0M-15" value="" style="ellipse;whiteSpace=wrap;html=1;aspect=fixed;" parent="1" vertex="1">
          <mxGeometry x="417" y="596" width="60" height="60" as="geometry" />
        </mxCell>
        <mxCell id="TTgLGut_yQstgRSbEz0M-16" value="" style="ellipse;whiteSpace=wrap;html=1;aspect=fixed;" parent="1" vertex="1">
          <mxGeometry x="417" y="-11" width="60" height="60" as="geometry" />
        </mxCell>
        <mxCell id="TTgLGut_yQstgRSbEz0M-17" value="" style="endArrow=none;dashed=1;html=1;rounded=0;" parent="1" edge="1">
          <mxGeometry width="50" height="50" relative="1" as="geometry">
            <mxPoint x="447" y="139" as="sourcePoint" />
            <mxPoint x="447" y="69" as="targetPoint" />
          </mxGeometry>
        </mxCell>
        <mxCell id="TTgLGut_yQstgRSbEz0M-18" value="" style="ellipse;whiteSpace=wrap;html=1;aspect=fixed;" parent="1" vertex="1">
          <mxGeometry x="417" y="149" width="60" height="60" as="geometry" />
        </mxCell>
        <mxCell id="TTgLGut_yQstgRSbEz0M-19" value="" style="ellipse;whiteSpace=wrap;html=1;aspect=fixed;" parent="1" vertex="1">
          <mxGeometry x="573" y="217" width="60" height="60" as="geometry" />
        </mxCell>
        <mxCell id="TTgLGut_yQstgRSbEz0M-20" value="" style="ellipse;whiteSpace=wrap;html=1;aspect=fixed;" parent="1" vertex="1">
          <mxGeometry x="573" y="297" width="60" height="60" as="geometry" />
        </mxCell>
        <mxCell id="TTgLGut_yQstgRSbEz0M-21" value="" style="ellipse;whiteSpace=wrap;html=1;aspect=fixed;" parent="1" vertex="1">
          <mxGeometry x="573" y="367" width="60" height="60" as="geometry" />
        </mxCell>
        <mxCell id="TTgLGut_yQstgRSbEz0M-22" value="" style="ellipse;whiteSpace=wrap;html=1;aspect=fixed;" parent="1" vertex="1">
          <mxGeometry x="573" y="437" width="60" height="60" as="geometry" />
        </mxCell>
        <mxCell id="TTgLGut_yQstgRSbEz0M-23" value="" style="endArrow=none;dashed=1;html=1;rounded=0;" parent="1" edge="1">
          <mxGeometry width="50" height="50" relative="1" as="geometry">
            <mxPoint x="603" y="587" as="sourcePoint" />
            <mxPoint x="603" y="517" as="targetPoint" />
          </mxGeometry>
        </mxCell>
        <mxCell id="TTgLGut_yQstgRSbEz0M-24" value="" style="ellipse;whiteSpace=wrap;html=1;aspect=fixed;" parent="1" vertex="1">
          <mxGeometry x="573" y="597" width="60" height="60" as="geometry" />
        </mxCell>
        <mxCell id="TTgLGut_yQstgRSbEz0M-25" value="" style="ellipse;whiteSpace=wrap;html=1;aspect=fixed;" parent="1" vertex="1">
          <mxGeometry x="573" y="-10" width="60" height="60" as="geometry" />
        </mxCell>
        <mxCell id="TTgLGut_yQstgRSbEz0M-26" value="" style="endArrow=none;dashed=1;html=1;rounded=0;" parent="1" edge="1">
          <mxGeometry width="50" height="50" relative="1" as="geometry">
            <mxPoint x="603" y="140" as="sourcePoint" />
            <mxPoint x="603" y="70" as="targetPoint" />
          </mxGeometry>
        </mxCell>
        <mxCell id="TTgLGut_yQstgRSbEz0M-27" value="" style="ellipse;whiteSpace=wrap;html=1;aspect=fixed;" parent="1" vertex="1">
          <mxGeometry x="573" y="150" width="60" height="60" as="geometry" />
        </mxCell>
        <mxCell id="TTgLGut_yQstgRSbEz0M-37" value="" style="ellipse;whiteSpace=wrap;html=1;aspect=fixed;" parent="1" vertex="1">
          <mxGeometry x="726" y="399" width="60" height="60" as="geometry" />
        </mxCell>
        <mxCell id="TTgLGut_yQstgRSbEz0M-38" value="" style="ellipse;whiteSpace=wrap;html=1;aspect=fixed;" parent="1" vertex="1">
          <mxGeometry x="726" y="479" width="60" height="60" as="geometry" />
        </mxCell>
        <mxCell id="TTgLGut_yQstgRSbEz0M-39" value="" style="ellipse;whiteSpace=wrap;html=1;aspect=fixed;" parent="1" vertex="1">
          <mxGeometry x="726" y="549" width="60" height="60" as="geometry" />
        </mxCell>
        <mxCell id="TTgLGut_yQstgRSbEz0M-40" value="" style="ellipse;whiteSpace=wrap;html=1;aspect=fixed;" parent="1" vertex="1">
          <mxGeometry x="726" y="619" width="60" height="60" as="geometry" />
        </mxCell>
        <mxCell id="TTgLGut_yQstgRSbEz0M-41" value="" style="ellipse;whiteSpace=wrap;html=1;aspect=fixed;" parent="1" vertex="1">
          <mxGeometry x="726" y="332" width="60" height="60" as="geometry" />
        </mxCell>
        <mxCell id="TTgLGut_yQstgRSbEz0M-42" value="" style="ellipse;whiteSpace=wrap;html=1;aspect=fixed;" parent="1" vertex="1">
          <mxGeometry x="721" y="46" width="60" height="60" as="geometry" />
        </mxCell>
        <mxCell id="TTgLGut_yQstgRSbEz0M-43" value="" style="ellipse;whiteSpace=wrap;html=1;aspect=fixed;" parent="1" vertex="1">
          <mxGeometry x="721" y="126" width="60" height="60" as="geometry" />
        </mxCell>
        <mxCell id="TTgLGut_yQstgRSbEz0M-44" value="" style="ellipse;whiteSpace=wrap;html=1;aspect=fixed;" parent="1" vertex="1">
          <mxGeometry x="721" y="196" width="60" height="60" as="geometry" />
        </mxCell>
        <mxCell id="TTgLGut_yQstgRSbEz0M-45" value="" style="ellipse;whiteSpace=wrap;html=1;aspect=fixed;" parent="1" vertex="1">
          <mxGeometry x="721" y="266" width="60" height="60" as="geometry" />
        </mxCell>
        <mxCell id="TTgLGut_yQstgRSbEz0M-46" value="" style="ellipse;whiteSpace=wrap;html=1;aspect=fixed;" parent="1" vertex="1">
          <mxGeometry x="721" y="-21" width="60" height="60" as="geometry" />
        </mxCell>
        <mxCell id="TTgLGut_yQstgRSbEz0M-47" value="input layer&lt;div&gt;size&lt;/div&gt;&lt;div&gt;28*28&lt;/div&gt;" style="text;html=1;align=center;verticalAlign=middle;whiteSpace=wrap;rounded=0;" parent="1" vertex="1">
          <mxGeometry x="260" y="600" width="60" height="30" as="geometry" />
        </mxCell>
        <mxCell id="TTgLGut_yQstgRSbEz0M-48" value="" style="endArrow=classic;html=1;rounded=0;exitX=1.048;exitY=0.145;exitDx=0;exitDy=0;exitPerimeter=0;" parent="1" source="iptTJBS3mq1ToicsPZpx-48" edge="1">
          <mxGeometry width="50" height="50" relative="1" as="geometry">
            <mxPoint x="180" y="149.62" as="sourcePoint" />
            <mxPoint x="250" y="149.62" as="targetPoint" />
          </mxGeometry>
        </mxCell>
        <mxCell id="TTgLGut_yQstgRSbEz0M-54" value="" style="endArrow=classic;html=1;rounded=0;" parent="1" edge="1">
          <mxGeometry width="50" height="50" relative="1" as="geometry">
            <mxPoint y="240" as="sourcePoint" />
            <mxPoint x="250" y="229.62" as="targetPoint" />
          </mxGeometry>
        </mxCell>
        <mxCell id="TTgLGut_yQstgRSbEz0M-55" value="" style="endArrow=classic;html=1;rounded=0;exitX=1;exitY=0.5;exitDx=0;exitDy=0;" parent="1" source="iptTJBS3mq1ToicsPZpx-48" edge="1">
          <mxGeometry width="50" height="50" relative="1" as="geometry">
            <mxPoint x="180" y="310" as="sourcePoint" />
            <mxPoint x="250" y="310" as="targetPoint" />
          </mxGeometry>
        </mxCell>
        <mxCell id="TTgLGut_yQstgRSbEz0M-56" value="" style="endArrow=classic;html=1;rounded=0;" parent="1" edge="1">
          <mxGeometry width="50" height="50" relative="1" as="geometry">
            <mxPoint y="280" as="sourcePoint" />
            <mxPoint x="240" y="368" as="targetPoint" />
          </mxGeometry>
        </mxCell>
        <mxCell id="TTgLGut_yQstgRSbEz0M-57" value="" style="endArrow=classic;html=1;rounded=0;exitX=0.99;exitY=0.896;exitDx=0;exitDy=0;exitPerimeter=0;" parent="1" source="iptTJBS3mq1ToicsPZpx-48" edge="1">
          <mxGeometry width="50" height="50" relative="1" as="geometry">
            <mxPoint x="180" y="529.44" as="sourcePoint" />
            <mxPoint x="250" y="529.44" as="targetPoint" />
          </mxGeometry>
        </mxCell>
        <mxCell id="TTgLGut_yQstgRSbEz0M-59" value="" style="endArrow=classic;html=1;rounded=0;exitX=1.044;exitY=0.381;exitDx=0;exitDy=0;exitPerimeter=0;entryX=0.083;entryY=0.742;entryDx=0;entryDy=0;entryPerimeter=0;" parent="1" source="TTgLGut_yQstgRSbEz0M-1" target="TTgLGut_yQstgRSbEz0M-16" edge="1">
          <mxGeometry width="50" height="50" relative="1" as="geometry">
            <mxPoint x="340" y="90" as="sourcePoint" />
            <mxPoint x="410" y="90" as="targetPoint" />
          </mxGeometry>
        </mxCell>
        <mxCell id="TTgLGut_yQstgRSbEz0M-60" value="" style="endArrow=classic;html=1;rounded=0;exitX=1;exitY=0.5;exitDx=0;exitDy=0;entryX=0;entryY=1;entryDx=0;entryDy=0;" parent="1" source="TTgLGut_yQstgRSbEz0M-2" target="TTgLGut_yQstgRSbEz0M-16" edge="1">
          <mxGeometry width="50" height="50" relative="1" as="geometry">
            <mxPoint x="340" y="190" as="sourcePoint" />
            <mxPoint x="410" y="190" as="targetPoint" />
          </mxGeometry>
        </mxCell>
        <mxCell id="TTgLGut_yQstgRSbEz0M-61" value="" style="endArrow=classic;html=1;rounded=0;exitX=1.022;exitY=0.314;exitDx=0;exitDy=0;exitPerimeter=0;" parent="1" source="TTgLGut_yQstgRSbEz0M-3" edge="1">
          <mxGeometry width="50" height="50" relative="1" as="geometry">
            <mxPoint x="330" y="266" as="sourcePoint" />
            <mxPoint x="430" y="50" as="targetPoint" />
          </mxGeometry>
        </mxCell>
        <mxCell id="TTgLGut_yQstgRSbEz0M-62" value="" style="endArrow=classic;html=1;rounded=0;exitX=1;exitY=0;exitDx=0;exitDy=0;entryX=0;entryY=1;entryDx=0;entryDy=0;" parent="1" source="TTgLGut_yQstgRSbEz0M-6" target="TTgLGut_yQstgRSbEz0M-16" edge="1">
          <mxGeometry width="50" height="50" relative="1" as="geometry">
            <mxPoint x="350" y="310" as="sourcePoint" />
            <mxPoint x="420" y="310" as="targetPoint" />
          </mxGeometry>
        </mxCell>
        <mxCell id="TTgLGut_yQstgRSbEz0M-63" value="" style="endArrow=classic;html=1;rounded=0;exitX=1;exitY=0.5;exitDx=0;exitDy=0;entryX=0.34;entryY=0.95;entryDx=0;entryDy=0;entryPerimeter=0;" parent="1" source="TTgLGut_yQstgRSbEz0M-9" target="TTgLGut_yQstgRSbEz0M-16" edge="1">
          <mxGeometry width="50" height="50" relative="1" as="geometry">
            <mxPoint x="360" y="420" as="sourcePoint" />
            <mxPoint x="430" y="420" as="targetPoint" />
          </mxGeometry>
        </mxCell>
        <mxCell id="TTgLGut_yQstgRSbEz0M-64" value="" style="endArrow=classic;html=1;rounded=0;exitX=1;exitY=0.5;exitDx=0;exitDy=0;" parent="1" source="TTgLGut_yQstgRSbEz0M-46" edge="1">
          <mxGeometry width="50" height="50" relative="1" as="geometry">
            <mxPoint x="810" y="-10" as="sourcePoint" />
            <mxPoint x="880" y="10" as="targetPoint" />
          </mxGeometry>
        </mxCell>
        <mxCell id="TTgLGut_yQstgRSbEz0M-65" value="" style="endArrow=classic;html=1;rounded=0;" parent="1" edge="1">
          <mxGeometry width="50" height="50" relative="1" as="geometry">
            <mxPoint x="786" y="75.17" as="sourcePoint" />
            <mxPoint x="856" y="75.17" as="targetPoint" />
          </mxGeometry>
        </mxCell>
        <mxCell id="TTgLGut_yQstgRSbEz0M-66" value="" style="endArrow=classic;html=1;rounded=0;" parent="1" edge="1">
          <mxGeometry width="50" height="50" relative="1" as="geometry">
            <mxPoint x="786" y="148.33" as="sourcePoint" />
            <mxPoint x="856" y="148.33" as="targetPoint" />
          </mxGeometry>
        </mxCell>
        <mxCell id="TTgLGut_yQstgRSbEz0M-67" value="" style="endArrow=classic;html=1;rounded=0;" parent="1" edge="1">
          <mxGeometry width="50" height="50" relative="1" as="geometry">
            <mxPoint x="781" y="229.17000000000002" as="sourcePoint" />
            <mxPoint x="851" y="229.17000000000002" as="targetPoint" />
          </mxGeometry>
        </mxCell>
        <mxCell id="TTgLGut_yQstgRSbEz0M-68" value="" style="endArrow=classic;html=1;rounded=0;" parent="1" edge="1">
          <mxGeometry width="50" height="50" relative="1" as="geometry">
            <mxPoint x="790" y="290" as="sourcePoint" />
            <mxPoint x="860" y="290" as="targetPoint" />
          </mxGeometry>
        </mxCell>
        <mxCell id="TTgLGut_yQstgRSbEz0M-69" value="" style="endArrow=classic;html=1;rounded=0;" parent="1" edge="1">
          <mxGeometry width="50" height="50" relative="1" as="geometry">
            <mxPoint x="800" y="365.33" as="sourcePoint" />
            <mxPoint x="870" y="365.33" as="targetPoint" />
          </mxGeometry>
        </mxCell>
        <mxCell id="TTgLGut_yQstgRSbEz0M-70" value="" style="endArrow=classic;html=1;rounded=0;" parent="1" edge="1">
          <mxGeometry width="50" height="50" relative="1" as="geometry">
            <mxPoint x="800" y="420" as="sourcePoint" />
            <mxPoint x="870" y="420" as="targetPoint" />
          </mxGeometry>
        </mxCell>
        <mxCell id="TTgLGut_yQstgRSbEz0M-71" value="" style="endArrow=classic;html=1;rounded=0;" parent="1" edge="1">
          <mxGeometry width="50" height="50" relative="1" as="geometry">
            <mxPoint x="800" y="508.17" as="sourcePoint" />
            <mxPoint x="870" y="508.17" as="targetPoint" />
          </mxGeometry>
        </mxCell>
        <mxCell id="TTgLGut_yQstgRSbEz0M-72" value="" style="endArrow=classic;html=1;rounded=0;" parent="1" edge="1">
          <mxGeometry width="50" height="50" relative="1" as="geometry">
            <mxPoint x="800" y="570" as="sourcePoint" />
            <mxPoint x="870" y="570" as="targetPoint" />
          </mxGeometry>
        </mxCell>
        <mxCell id="TTgLGut_yQstgRSbEz0M-73" value="" style="endArrow=classic;html=1;rounded=0;" parent="1" edge="1">
          <mxGeometry width="50" height="50" relative="1" as="geometry">
            <mxPoint x="780" y="657" as="sourcePoint" />
            <mxPoint x="850" y="657" as="targetPoint" />
          </mxGeometry>
        </mxCell>
        <mxCell id="TTgLGut_yQstgRSbEz0M-74" value="conv" style="shape=cube;whiteSpace=wrap;html=1;boundedLbl=1;backgroundOutline=1;darkOpacity=0.05;darkOpacity2=0.1;" parent="1" vertex="1">
          <mxGeometry x="-405" y="-825.5" width="140" height="129" as="geometry" />
        </mxCell>
        <mxCell id="TTgLGut_yQstgRSbEz0M-75" value="Maxpol" style="shape=cube;whiteSpace=wrap;html=1;boundedLbl=1;backgroundOutline=1;darkOpacity=0.05;darkOpacity2=0.1;" parent="1" vertex="1">
          <mxGeometry x="-85" y="-802.5" width="120" height="80" as="geometry" />
        </mxCell>
        <mxCell id="TTgLGut_yQstgRSbEz0M-76" value="" style="swimlane;startSize=0;" parent="1" vertex="1" collapsed="1">
          <mxGeometry x="-535" y="-772.5" width="50" height="40" as="geometry">
            <mxRectangle x="1080" y="420" width="100" height="90" as="alternateBounds" />
          </mxGeometry>
        </mxCell>
        <mxCell id="TTgLGut_yQstgRSbEz0M-77" value="" style="endArrow=classic;html=1;rounded=0;exitX=1;exitY=0.5;exitDx=0;exitDy=0;entryX=-0.008;entryY=0.552;entryDx=0;entryDy=0;entryPerimeter=0;" parent="1" source="TTgLGut_yQstgRSbEz0M-76" target="TTgLGut_yQstgRSbEz0M-74" edge="1">
          <mxGeometry width="50" height="50" relative="1" as="geometry">
            <mxPoint x="-475" y="-727.5" as="sourcePoint" />
            <mxPoint x="-425" y="-777.5" as="targetPoint" />
          </mxGeometry>
        </mxCell>
        <mxCell id="TTgLGut_yQstgRSbEz0M-90" value="" style="swimlane;startSize=0;" parent="1" vertex="1" collapsed="1">
          <mxGeometry x="-215" y="-813.5" width="50" height="40" as="geometry">
            <mxRectangle x="1080" y="420" width="100" height="90" as="alternateBounds" />
          </mxGeometry>
        </mxCell>
        <mxCell id="TTgLGut_yQstgRSbEz0M-91" value="" style="swimlane;startSize=0;" parent="1" vertex="1" collapsed="1">
          <mxGeometry x="-205" y="-795.5" width="50" height="40" as="geometry">
            <mxRectangle x="1080" y="420" width="100" height="90" as="alternateBounds" />
          </mxGeometry>
        </mxCell>
        <mxCell id="TTgLGut_yQstgRSbEz0M-92" value="" style="swimlane;startSize=0;" parent="1" vertex="1" collapsed="1">
          <mxGeometry x="-185" y="-765.5" width="50" height="40" as="geometry">
            <mxRectangle x="1080" y="420" width="100" height="90" as="alternateBounds" />
          </mxGeometry>
        </mxCell>
        <mxCell id="TTgLGut_yQstgRSbEz0M-94" value="" style="swimlane;startSize=0;" parent="1" vertex="1" collapsed="1">
          <mxGeometry x="-165" y="-745.5" width="50" height="40" as="geometry">
            <mxRectangle x="1080" y="420" width="100" height="90" as="alternateBounds" />
          </mxGeometry>
        </mxCell>
        <mxCell id="TTgLGut_yQstgRSbEz0M-95" value="one image&amp;nbsp;" style="text;html=1;align=center;verticalAlign=middle;resizable=0;points=[];autosize=1;strokeColor=none;fillColor=none;" parent="1" vertex="1">
          <mxGeometry x="-550" y="-811.5" width="80" height="30" as="geometry" />
        </mxCell>
        <mxCell id="TTgLGut_yQstgRSbEz0M-96" value="32 feture" style="text;html=1;align=center;verticalAlign=middle;resizable=0;points=[];autosize=1;strokeColor=none;fillColor=none;" parent="1" vertex="1">
          <mxGeometry x="-240" y="-857.5" width="70" height="30" as="geometry" />
        </mxCell>
        <mxCell id="TTgLGut_yQstgRSbEz0M-97" value="" style="endArrow=classic;html=1;rounded=0;exitX=0.993;exitY=0.498;exitDx=0;exitDy=0;exitPerimeter=0;" parent="1" source="TTgLGut_yQstgRSbEz0M-74" edge="1">
          <mxGeometry width="50" height="50" relative="1" as="geometry">
            <mxPoint x="-235" y="-759.5" as="sourcePoint" />
            <mxPoint x="-225" y="-761.5" as="targetPoint" />
          </mxGeometry>
        </mxCell>
        <mxCell id="iptTJBS3mq1ToicsPZpx-3" value="" style="swimlane;startSize=0;" parent="1" collapsed="1" vertex="1">
          <mxGeometry x="91" y="-810.5" width="50" height="40" as="geometry">
            <mxRectangle x="1080" y="420" width="100" height="90" as="alternateBounds" />
          </mxGeometry>
        </mxCell>
        <mxCell id="iptTJBS3mq1ToicsPZpx-4" value="" style="swimlane;startSize=0;" parent="1" collapsed="1" vertex="1">
          <mxGeometry x="101" y="-792.5" width="50" height="40" as="geometry">
            <mxRectangle x="1080" y="420" width="100" height="90" as="alternateBounds" />
          </mxGeometry>
        </mxCell>
        <mxCell id="iptTJBS3mq1ToicsPZpx-5" value="" style="swimlane;startSize=0;" parent="1" collapsed="1" vertex="1">
          <mxGeometry x="121" y="-762.5" width="50" height="40" as="geometry">
            <mxRectangle x="1080" y="420" width="100" height="90" as="alternateBounds" />
          </mxGeometry>
        </mxCell>
        <mxCell id="iptTJBS3mq1ToicsPZpx-6" value="" style="swimlane;startSize=0;" parent="1" collapsed="1" vertex="1">
          <mxGeometry x="141" y="-742.5" width="50" height="40" as="geometry">
            <mxRectangle x="1080" y="420" width="100" height="90" as="alternateBounds" />
          </mxGeometry>
        </mxCell>
        <mxCell id="iptTJBS3mq1ToicsPZpx-7" value="32 feture" style="text;html=1;align=center;verticalAlign=middle;resizable=0;points=[];autosize=1;strokeColor=none;fillColor=none;" parent="1" vertex="1">
          <mxGeometry x="66" y="-854.5" width="70" height="30" as="geometry" />
        </mxCell>
        <mxCell id="iptTJBS3mq1ToicsPZpx-8" value="" style="endArrow=classic;html=1;rounded=0;exitX=0.993;exitY=0.498;exitDx=0;exitDy=0;exitPerimeter=0;" parent="1" edge="1">
          <mxGeometry width="50" height="50" relative="1" as="geometry">
            <mxPoint x="40" y="-758.5" as="sourcePoint" />
            <mxPoint x="81" y="-758.5" as="targetPoint" />
          </mxGeometry>
        </mxCell>
        <mxCell id="iptTJBS3mq1ToicsPZpx-9" value="28x28" style="text;html=1;align=center;verticalAlign=middle;resizable=0;points=[];autosize=1;strokeColor=none;fillColor=none;" parent="1" vertex="1">
          <mxGeometry x="-190" y="-691.5" width="60" height="30" as="geometry" />
        </mxCell>
        <mxCell id="iptTJBS3mq1ToicsPZpx-10" value="14x14" style="text;html=1;align=center;verticalAlign=middle;resizable=0;points=[];autosize=1;strokeColor=none;fillColor=none;" parent="1" vertex="1">
          <mxGeometry x="116" y="-691.5" width="60" height="30" as="geometry" />
        </mxCell>
        <mxCell id="iptTJBS3mq1ToicsPZpx-11" value="28x28" style="text;html=1;align=center;verticalAlign=middle;resizable=0;points=[];autosize=1;strokeColor=none;fillColor=none;" parent="1" vertex="1">
          <mxGeometry x="-540" y="-721.5" width="60" height="30" as="geometry" />
        </mxCell>
        <mxCell id="iptTJBS3mq1ToicsPZpx-12" value="28x28" style="text;html=1;align=center;verticalAlign=middle;resizable=0;points=[];autosize=1;strokeColor=none;fillColor=none;" parent="1" vertex="1">
          <mxGeometry x="55" y="-761.5" width="60" height="30" as="geometry" />
        </mxCell>
        <mxCell id="iptTJBS3mq1ToicsPZpx-14" value="" style="endArrow=classic;html=1;rounded=0;exitX=0.993;exitY=0.498;exitDx=0;exitDy=0;exitPerimeter=0;" parent="1" edge="1">
          <mxGeometry width="50" height="50" relative="1" as="geometry">
            <mxPoint x="-126" y="-773.5" as="sourcePoint" />
            <mxPoint x="-85" y="-773.5" as="targetPoint" />
          </mxGeometry>
        </mxCell>
        <mxCell id="iptTJBS3mq1ToicsPZpx-16" value="conv" style="shape=cube;whiteSpace=wrap;html=1;boundedLbl=1;backgroundOutline=1;darkOpacity=0.05;darkOpacity2=0.1;" parent="1" vertex="1">
          <mxGeometry x="265" y="-829.5" width="140" height="129" as="geometry" />
        </mxCell>
        <mxCell id="iptTJBS3mq1ToicsPZpx-17" value="Maxpol" style="shape=cube;whiteSpace=wrap;html=1;boundedLbl=1;backgroundOutline=1;darkOpacity=0.05;darkOpacity2=0.1;" parent="1" vertex="1">
          <mxGeometry x="585" y="-806.5" width="120" height="80" as="geometry" />
        </mxCell>
        <mxCell id="iptTJBS3mq1ToicsPZpx-18" value="" style="swimlane;startSize=0;" parent="1" collapsed="1" vertex="1">
          <mxGeometry x="455" y="-817.5" width="50" height="40" as="geometry">
            <mxRectangle x="1080" y="420" width="100" height="90" as="alternateBounds" />
          </mxGeometry>
        </mxCell>
        <mxCell id="iptTJBS3mq1ToicsPZpx-19" value="" style="swimlane;startSize=0;" parent="1" collapsed="1" vertex="1">
          <mxGeometry x="465" y="-799.5" width="50" height="40" as="geometry">
            <mxRectangle x="1080" y="420" width="100" height="90" as="alternateBounds" />
          </mxGeometry>
        </mxCell>
        <mxCell id="iptTJBS3mq1ToicsPZpx-20" value="" style="swimlane;startSize=0;" parent="1" collapsed="1" vertex="1">
          <mxGeometry x="485" y="-769.5" width="50" height="40" as="geometry">
            <mxRectangle x="1080" y="420" width="100" height="90" as="alternateBounds" />
          </mxGeometry>
        </mxCell>
        <mxCell id="iptTJBS3mq1ToicsPZpx-21" value="" style="swimlane;startSize=0;" parent="1" collapsed="1" vertex="1">
          <mxGeometry x="505" y="-749.5" width="50" height="40" as="geometry">
            <mxRectangle x="1080" y="420" width="100" height="90" as="alternateBounds" />
          </mxGeometry>
        </mxCell>
        <mxCell id="iptTJBS3mq1ToicsPZpx-22" value="64 feture" style="text;html=1;align=center;verticalAlign=middle;resizable=0;points=[];autosize=1;strokeColor=none;fillColor=none;" parent="1" vertex="1">
          <mxGeometry x="430" y="-861.5" width="70" height="30" as="geometry" />
        </mxCell>
        <mxCell id="iptTJBS3mq1ToicsPZpx-23" value="" style="endArrow=classic;html=1;rounded=0;exitX=0.993;exitY=0.498;exitDx=0;exitDy=0;exitPerimeter=0;" parent="1" source="iptTJBS3mq1ToicsPZpx-16" edge="1">
          <mxGeometry width="50" height="50" relative="1" as="geometry">
            <mxPoint x="435" y="-763.5" as="sourcePoint" />
            <mxPoint x="445" y="-765.5" as="targetPoint" />
          </mxGeometry>
        </mxCell>
        <mxCell id="iptTJBS3mq1ToicsPZpx-24" value="" style="swimlane;startSize=0;" parent="1" collapsed="1" vertex="1">
          <mxGeometry x="761" y="-814.5" width="50" height="40" as="geometry">
            <mxRectangle x="1080" y="420" width="100" height="90" as="alternateBounds" />
          </mxGeometry>
        </mxCell>
        <mxCell id="iptTJBS3mq1ToicsPZpx-25" value="" style="swimlane;startSize=0;" parent="1" collapsed="1" vertex="1">
          <mxGeometry x="771" y="-796.5" width="50" height="40" as="geometry">
            <mxRectangle x="1080" y="420" width="100" height="90" as="alternateBounds" />
          </mxGeometry>
        </mxCell>
        <mxCell id="iptTJBS3mq1ToicsPZpx-26" value="" style="swimlane;startSize=0;" parent="1" collapsed="1" vertex="1">
          <mxGeometry x="791" y="-766.5" width="50" height="40" as="geometry">
            <mxRectangle x="1080" y="420" width="100" height="90" as="alternateBounds" />
          </mxGeometry>
        </mxCell>
        <mxCell id="iptTJBS3mq1ToicsPZpx-27" value="" style="swimlane;startSize=0;" parent="1" collapsed="1" vertex="1">
          <mxGeometry x="811" y="-746.5" width="50" height="40" as="geometry">
            <mxRectangle x="1080" y="420" width="100" height="90" as="alternateBounds" />
          </mxGeometry>
        </mxCell>
        <mxCell id="iptTJBS3mq1ToicsPZpx-28" value="64 feture" style="text;html=1;align=center;verticalAlign=middle;resizable=0;points=[];autosize=1;strokeColor=none;fillColor=none;" parent="1" vertex="1">
          <mxGeometry x="736" y="-858.5" width="70" height="30" as="geometry" />
        </mxCell>
        <mxCell id="iptTJBS3mq1ToicsPZpx-29" value="" style="endArrow=classic;html=1;rounded=0;exitX=0.993;exitY=0.498;exitDx=0;exitDy=0;exitPerimeter=0;" parent="1" edge="1">
          <mxGeometry width="50" height="50" relative="1" as="geometry">
            <mxPoint x="710" y="-762.5" as="sourcePoint" />
            <mxPoint x="751" y="-762.5" as="targetPoint" />
          </mxGeometry>
        </mxCell>
        <mxCell id="iptTJBS3mq1ToicsPZpx-30" value="14x14" style="text;html=1;align=center;verticalAlign=middle;resizable=0;points=[];autosize=1;strokeColor=none;fillColor=none;" parent="1" vertex="1">
          <mxGeometry x="480" y="-695.5" width="60" height="30" as="geometry" />
        </mxCell>
        <mxCell id="iptTJBS3mq1ToicsPZpx-31" value="7x7" style="text;html=1;align=center;verticalAlign=middle;resizable=0;points=[];autosize=1;strokeColor=none;fillColor=none;" parent="1" vertex="1">
          <mxGeometry x="796" y="-695.5" width="40" height="30" as="geometry" />
        </mxCell>
        <mxCell id="iptTJBS3mq1ToicsPZpx-32" value="28x28" style="text;html=1;align=center;verticalAlign=middle;resizable=0;points=[];autosize=1;strokeColor=none;fillColor=none;" parent="1" vertex="1">
          <mxGeometry x="725" y="-765.5" width="60" height="30" as="geometry" />
        </mxCell>
        <mxCell id="iptTJBS3mq1ToicsPZpx-33" value="" style="endArrow=classic;html=1;rounded=0;exitX=0.993;exitY=0.498;exitDx=0;exitDy=0;exitPerimeter=0;" parent="1" edge="1">
          <mxGeometry width="50" height="50" relative="1" as="geometry">
            <mxPoint x="544" y="-777.5" as="sourcePoint" />
            <mxPoint x="585" y="-777.5" as="targetPoint" />
          </mxGeometry>
        </mxCell>
        <mxCell id="iptTJBS3mq1ToicsPZpx-34" value="" style="endArrow=classic;html=1;rounded=0;entryX=-0.008;entryY=0.474;entryDx=0;entryDy=0;entryPerimeter=0;" parent="1" target="iptTJBS3mq1ToicsPZpx-16" edge="1">
          <mxGeometry width="50" height="50" relative="1" as="geometry">
            <mxPoint x="185" y="-771.5" as="sourcePoint" />
            <mxPoint x="246" y="-771.5" as="targetPoint" />
          </mxGeometry>
        </mxCell>
        <mxCell id="iptTJBS3mq1ToicsPZpx-35" value="" style="ellipse;whiteSpace=wrap;html=1;aspect=fixed;" parent="1" vertex="1">
          <mxGeometry x="1015" y="-1020" width="60" height="60" as="geometry" />
        </mxCell>
        <mxCell id="iptTJBS3mq1ToicsPZpx-36" value="" style="ellipse;whiteSpace=wrap;html=1;aspect=fixed;" parent="1" vertex="1">
          <mxGeometry x="1015" y="-940" width="60" height="60" as="geometry" />
        </mxCell>
        <mxCell id="iptTJBS3mq1ToicsPZpx-37" value="" style="ellipse;whiteSpace=wrap;html=1;aspect=fixed;" parent="1" vertex="1">
          <mxGeometry x="1015" y="-870" width="60" height="60" as="geometry" />
        </mxCell>
        <mxCell id="iptTJBS3mq1ToicsPZpx-38" value="" style="ellipse;whiteSpace=wrap;html=1;aspect=fixed;" parent="1" vertex="1">
          <mxGeometry x="1015" y="-800" width="60" height="60" as="geometry" />
        </mxCell>
        <mxCell id="iptTJBS3mq1ToicsPZpx-39" value="" style="endArrow=none;dashed=1;html=1;rounded=0;" parent="1" edge="1">
          <mxGeometry width="50" height="50" relative="1" as="geometry">
            <mxPoint x="1045" y="-650" as="sourcePoint" />
            <mxPoint x="1045" y="-720" as="targetPoint" />
          </mxGeometry>
        </mxCell>
        <mxCell id="iptTJBS3mq1ToicsPZpx-40" value="" style="ellipse;whiteSpace=wrap;html=1;aspect=fixed;" parent="1" vertex="1">
          <mxGeometry x="1015" y="-640" width="60" height="60" as="geometry" />
        </mxCell>
        <mxCell id="iptTJBS3mq1ToicsPZpx-41" value="input layer&lt;div&gt;size&amp;nbsp;&lt;/div&gt;&lt;div&gt;7*7*64&lt;/div&gt;" style="text;html=1;align=center;verticalAlign=middle;whiteSpace=wrap;rounded=0;" parent="1" vertex="1">
          <mxGeometry x="1015" y="-540" width="60" height="30" as="geometry" />
        </mxCell>
        <mxCell id="iptTJBS3mq1ToicsPZpx-42" value="" style="endArrow=classic;html=1;rounded=0;" parent="1" edge="1">
          <mxGeometry width="50" height="50" relative="1" as="geometry">
            <mxPoint x="845" y="-831.5" as="sourcePoint" />
            <mxPoint x="1005" y="-990.38" as="targetPoint" />
          </mxGeometry>
        </mxCell>
        <mxCell id="iptTJBS3mq1ToicsPZpx-43" value="" style="endArrow=classic;html=1;rounded=0;" parent="1" edge="1">
          <mxGeometry width="50" height="50" relative="1" as="geometry">
            <mxPoint x="875" y="-811.5" as="sourcePoint" />
            <mxPoint x="1005" y="-910.38" as="targetPoint" />
          </mxGeometry>
        </mxCell>
        <mxCell id="iptTJBS3mq1ToicsPZpx-44" value="" style="endArrow=classic;html=1;rounded=0;" parent="1" edge="1">
          <mxGeometry width="50" height="50" relative="1" as="geometry">
            <mxPoint x="895" y="-781.5" as="sourcePoint" />
            <mxPoint x="1005" y="-830" as="targetPoint" />
          </mxGeometry>
        </mxCell>
        <mxCell id="iptTJBS3mq1ToicsPZpx-45" value="" style="endArrow=classic;html=1;rounded=0;" parent="1" edge="1">
          <mxGeometry width="50" height="50" relative="1" as="geometry">
            <mxPoint x="895" y="-741.5" as="sourcePoint" />
            <mxPoint x="995" y="-772" as="targetPoint" />
          </mxGeometry>
        </mxCell>
        <mxCell id="iptTJBS3mq1ToicsPZpx-46" value="" style="endArrow=classic;html=1;rounded=0;" parent="1" edge="1">
          <mxGeometry width="50" height="50" relative="1" as="geometry">
            <mxPoint x="885" y="-701.5" as="sourcePoint" />
            <mxPoint x="1005" y="-610.56" as="targetPoint" />
          </mxGeometry>
        </mxCell>
        <mxCell id="iptTJBS3mq1ToicsPZpx-47" value="" style="swimlane;startSize=0;" parent="1" collapsed="1" vertex="1">
          <mxGeometry x="-290" y="240" width="50" height="40" as="geometry">
            <mxRectangle x="-290" y="240" width="100" height="90" as="alternateBounds" />
          </mxGeometry>
        </mxCell>
        <mxCell id="iptTJBS3mq1ToicsPZpx-48" value="Flatten" style="whiteSpace=wrap;html=1;aspect=fixed;" parent="1" vertex="1">
          <mxGeometry x="-130" y="202" width="124" height="124" as="geometry" />
        </mxCell>
        <mxCell id="iptTJBS3mq1ToicsPZpx-49" style="edgeStyle=orthogonalEdgeStyle;rounded=0;orthogonalLoop=1;jettySize=auto;html=1;exitX=1;exitY=0.5;exitDx=0;exitDy=0;entryX=-0.005;entryY=0.472;entryDx=0;entryDy=0;entryPerimeter=0;" parent="1" source="iptTJBS3mq1ToicsPZpx-47" target="iptTJBS3mq1ToicsPZpx-48" edge="1">
          <mxGeometry relative="1" as="geometry" />
        </mxCell>
        <mxCell id="BmBPBDsDw38h7yJjbJaB-1" value="convert 2d image&amp;nbsp;&lt;div&gt;to 1d&lt;/div&gt;" style="text;html=1;align=center;verticalAlign=middle;resizable=0;points=[];autosize=1;strokeColor=none;fillColor=none;" vertex="1" parent="1">
          <mxGeometry x="-140" y="143" width="120" height="40" as="geometry" />
        </mxCell>
        <mxCell id="BmBPBDsDw38h7yJjbJaB-2" value="hidden layer&lt;div&gt;size&lt;/div&gt;&lt;div&gt;512&lt;/div&gt;" style="text;html=1;align=center;verticalAlign=middle;resizable=0;points=[];autosize=1;strokeColor=none;fillColor=none;" vertex="1" parent="1">
          <mxGeometry x="395" y="653" width="90" height="60" as="geometry" />
        </mxCell>
        <mxCell id="BmBPBDsDw38h7yJjbJaB-3" value="hidden layer&amp;nbsp;&lt;div&gt;size&lt;/div&gt;&lt;div&gt;256&lt;/div&gt;" style="text;html=1;align=center;verticalAlign=middle;resizable=0;points=[];autosize=1;strokeColor=none;fillColor=none;" vertex="1" parent="1">
          <mxGeometry x="555" y="653" width="90" height="60" as="geometry" />
        </mxCell>
        <mxCell id="BmBPBDsDw38h7yJjbJaB-4" value="output layer&lt;div&gt;size&lt;/div&gt;&lt;div&gt;10&lt;/div&gt;" style="text;html=1;align=center;verticalAlign=middle;resizable=0;points=[];autosize=1;strokeColor=none;fillColor=none;" vertex="1" parent="1">
          <mxGeometry x="695" y="673" width="90" height="60" as="geometry" />
        </mxCell>
        <mxCell id="BmBPBDsDw38h7yJjbJaB-5" value="" style="ellipse;whiteSpace=wrap;html=1;aspect=fixed;" vertex="1" parent="1">
          <mxGeometry x="1164" y="-903" width="60" height="60" as="geometry" />
        </mxCell>
        <mxCell id="BmBPBDsDw38h7yJjbJaB-6" value="" style="ellipse;whiteSpace=wrap;html=1;aspect=fixed;" vertex="1" parent="1">
          <mxGeometry x="1164" y="-823" width="60" height="60" as="geometry" />
        </mxCell>
        <mxCell id="BmBPBDsDw38h7yJjbJaB-7" value="" style="ellipse;whiteSpace=wrap;html=1;aspect=fixed;" vertex="1" parent="1">
          <mxGeometry x="1164" y="-753" width="60" height="60" as="geometry" />
        </mxCell>
        <mxCell id="BmBPBDsDw38h7yJjbJaB-8" value="" style="ellipse;whiteSpace=wrap;html=1;aspect=fixed;" vertex="1" parent="1">
          <mxGeometry x="1164" y="-683" width="60" height="60" as="geometry" />
        </mxCell>
        <mxCell id="BmBPBDsDw38h7yJjbJaB-9" value="" style="endArrow=none;dashed=1;html=1;rounded=0;" edge="1" parent="1">
          <mxGeometry width="50" height="50" relative="1" as="geometry">
            <mxPoint x="1194" y="-533" as="sourcePoint" />
            <mxPoint x="1194" y="-603" as="targetPoint" />
          </mxGeometry>
        </mxCell>
        <mxCell id="BmBPBDsDw38h7yJjbJaB-10" value="" style="ellipse;whiteSpace=wrap;html=1;aspect=fixed;" vertex="1" parent="1">
          <mxGeometry x="1164" y="-523" width="60" height="60" as="geometry" />
        </mxCell>
        <mxCell id="BmBPBDsDw38h7yJjbJaB-11" value="" style="ellipse;whiteSpace=wrap;html=1;aspect=fixed;" vertex="1" parent="1">
          <mxGeometry x="1164" y="-1130" width="60" height="60" as="geometry" />
        </mxCell>
        <mxCell id="BmBPBDsDw38h7yJjbJaB-12" value="" style="endArrow=none;dashed=1;html=1;rounded=0;" edge="1" parent="1">
          <mxGeometry width="50" height="50" relative="1" as="geometry">
            <mxPoint x="1194" y="-980" as="sourcePoint" />
            <mxPoint x="1194" y="-1050" as="targetPoint" />
          </mxGeometry>
        </mxCell>
        <mxCell id="BmBPBDsDw38h7yJjbJaB-13" value="" style="ellipse;whiteSpace=wrap;html=1;aspect=fixed;" vertex="1" parent="1">
          <mxGeometry x="1164" y="-970" width="60" height="60" as="geometry" />
        </mxCell>
        <mxCell id="BmBPBDsDw38h7yJjbJaB-14" value="" style="ellipse;whiteSpace=wrap;html=1;aspect=fixed;" vertex="1" parent="1">
          <mxGeometry x="1317" y="-721" width="60" height="60" as="geometry" />
        </mxCell>
        <mxCell id="BmBPBDsDw38h7yJjbJaB-15" value="" style="ellipse;whiteSpace=wrap;html=1;aspect=fixed;" vertex="1" parent="1">
          <mxGeometry x="1317" y="-641" width="60" height="60" as="geometry" />
        </mxCell>
        <mxCell id="BmBPBDsDw38h7yJjbJaB-16" value="" style="ellipse;whiteSpace=wrap;html=1;aspect=fixed;" vertex="1" parent="1">
          <mxGeometry x="1317" y="-571" width="60" height="60" as="geometry" />
        </mxCell>
        <mxCell id="BmBPBDsDw38h7yJjbJaB-17" value="" style="ellipse;whiteSpace=wrap;html=1;aspect=fixed;" vertex="1" parent="1">
          <mxGeometry x="1317" y="-501" width="60" height="60" as="geometry" />
        </mxCell>
        <mxCell id="BmBPBDsDw38h7yJjbJaB-18" value="" style="ellipse;whiteSpace=wrap;html=1;aspect=fixed;" vertex="1" parent="1">
          <mxGeometry x="1317" y="-788" width="60" height="60" as="geometry" />
        </mxCell>
        <mxCell id="BmBPBDsDw38h7yJjbJaB-19" value="" style="ellipse;whiteSpace=wrap;html=1;aspect=fixed;" vertex="1" parent="1">
          <mxGeometry x="1312" y="-1074" width="60" height="60" as="geometry" />
        </mxCell>
        <mxCell id="BmBPBDsDw38h7yJjbJaB-20" value="" style="ellipse;whiteSpace=wrap;html=1;aspect=fixed;" vertex="1" parent="1">
          <mxGeometry x="1312" y="-994" width="60" height="60" as="geometry" />
        </mxCell>
        <mxCell id="BmBPBDsDw38h7yJjbJaB-21" value="" style="ellipse;whiteSpace=wrap;html=1;aspect=fixed;" vertex="1" parent="1">
          <mxGeometry x="1312" y="-924" width="60" height="60" as="geometry" />
        </mxCell>
        <mxCell id="BmBPBDsDw38h7yJjbJaB-22" value="" style="ellipse;whiteSpace=wrap;html=1;aspect=fixed;" vertex="1" parent="1">
          <mxGeometry x="1312" y="-854" width="60" height="60" as="geometry" />
        </mxCell>
        <mxCell id="BmBPBDsDw38h7yJjbJaB-23" value="" style="ellipse;whiteSpace=wrap;html=1;aspect=fixed;" vertex="1" parent="1">
          <mxGeometry x="1312" y="-1141" width="60" height="60" as="geometry" />
        </mxCell>
        <mxCell id="BmBPBDsDw38h7yJjbJaB-24" value="" style="endArrow=classic;html=1;rounded=0;exitX=1;exitY=0.5;exitDx=0;exitDy=0;" edge="1" parent="1" source="BmBPBDsDw38h7yJjbJaB-23">
          <mxGeometry width="50" height="50" relative="1" as="geometry">
            <mxPoint x="1401" y="-1130" as="sourcePoint" />
            <mxPoint x="1471" y="-1110" as="targetPoint" />
          </mxGeometry>
        </mxCell>
        <mxCell id="BmBPBDsDw38h7yJjbJaB-25" value="" style="endArrow=classic;html=1;rounded=0;" edge="1" parent="1">
          <mxGeometry width="50" height="50" relative="1" as="geometry">
            <mxPoint x="1377" y="-1044.83" as="sourcePoint" />
            <mxPoint x="1447" y="-1044.83" as="targetPoint" />
          </mxGeometry>
        </mxCell>
        <mxCell id="BmBPBDsDw38h7yJjbJaB-26" value="" style="endArrow=classic;html=1;rounded=0;" edge="1" parent="1">
          <mxGeometry width="50" height="50" relative="1" as="geometry">
            <mxPoint x="1377" y="-971.67" as="sourcePoint" />
            <mxPoint x="1447" y="-971.67" as="targetPoint" />
          </mxGeometry>
        </mxCell>
        <mxCell id="BmBPBDsDw38h7yJjbJaB-27" value="" style="endArrow=classic;html=1;rounded=0;" edge="1" parent="1">
          <mxGeometry width="50" height="50" relative="1" as="geometry">
            <mxPoint x="1372" y="-890.8299999999999" as="sourcePoint" />
            <mxPoint x="1442" y="-890.8299999999999" as="targetPoint" />
          </mxGeometry>
        </mxCell>
        <mxCell id="BmBPBDsDw38h7yJjbJaB-28" value="" style="endArrow=classic;html=1;rounded=0;" edge="1" parent="1">
          <mxGeometry width="50" height="50" relative="1" as="geometry">
            <mxPoint x="1381" y="-830" as="sourcePoint" />
            <mxPoint x="1451" y="-830" as="targetPoint" />
          </mxGeometry>
        </mxCell>
        <mxCell id="BmBPBDsDw38h7yJjbJaB-29" value="" style="endArrow=classic;html=1;rounded=0;" edge="1" parent="1">
          <mxGeometry width="50" height="50" relative="1" as="geometry">
            <mxPoint x="1391" y="-754.6700000000001" as="sourcePoint" />
            <mxPoint x="1461" y="-754.6700000000001" as="targetPoint" />
          </mxGeometry>
        </mxCell>
        <mxCell id="BmBPBDsDw38h7yJjbJaB-30" value="" style="endArrow=classic;html=1;rounded=0;" edge="1" parent="1">
          <mxGeometry width="50" height="50" relative="1" as="geometry">
            <mxPoint x="1391" y="-700" as="sourcePoint" />
            <mxPoint x="1461" y="-700" as="targetPoint" />
          </mxGeometry>
        </mxCell>
        <mxCell id="BmBPBDsDw38h7yJjbJaB-31" value="" style="endArrow=classic;html=1;rounded=0;" edge="1" parent="1">
          <mxGeometry width="50" height="50" relative="1" as="geometry">
            <mxPoint x="1391" y="-611.8299999999999" as="sourcePoint" />
            <mxPoint x="1461" y="-611.8299999999999" as="targetPoint" />
          </mxGeometry>
        </mxCell>
        <mxCell id="BmBPBDsDw38h7yJjbJaB-32" value="" style="endArrow=classic;html=1;rounded=0;" edge="1" parent="1">
          <mxGeometry width="50" height="50" relative="1" as="geometry">
            <mxPoint x="1391" y="-550" as="sourcePoint" />
            <mxPoint x="1461" y="-550" as="targetPoint" />
          </mxGeometry>
        </mxCell>
        <mxCell id="BmBPBDsDw38h7yJjbJaB-33" value="" style="endArrow=classic;html=1;rounded=0;" edge="1" parent="1">
          <mxGeometry width="50" height="50" relative="1" as="geometry">
            <mxPoint x="1371" y="-463" as="sourcePoint" />
            <mxPoint x="1441" y="-463" as="targetPoint" />
          </mxGeometry>
        </mxCell>
        <mxCell id="BmBPBDsDw38h7yJjbJaB-34" value="hidden layer&amp;nbsp;&lt;div&gt;size&lt;/div&gt;&lt;div&gt;128&lt;/div&gt;" style="text;html=1;align=center;verticalAlign=middle;resizable=0;points=[];autosize=1;strokeColor=none;fillColor=none;" vertex="1" parent="1">
          <mxGeometry x="1146" y="-467" width="90" height="60" as="geometry" />
        </mxCell>
        <mxCell id="BmBPBDsDw38h7yJjbJaB-35" value="output layer&lt;div&gt;size&lt;/div&gt;&lt;div&gt;10&lt;/div&gt;" style="text;html=1;align=center;verticalAlign=middle;resizable=0;points=[];autosize=1;strokeColor=none;fillColor=none;" vertex="1" parent="1">
          <mxGeometry x="1286" y="-447" width="90" height="60" as="geometry" />
        </mxCell>
        <mxCell id="BmBPBDsDw38h7yJjbJaB-36" value="image" style="text;html=1;align=center;verticalAlign=middle;resizable=0;points=[];autosize=1;strokeColor=none;fillColor=none;" vertex="1" parent="1">
          <mxGeometry x="-295" y="196" width="60" height="30" as="geometry" />
        </mxCell>
      </root>
    </mxGraphModel>
  </diagram>
</mxfile>
